<?xml version="1.0" standalone="no"?>
<!DOCTYPE svg PUBLIC "-//W3C//DTD SVG 20010904//EN"
 "http://www.w3.org/TR/2001/REC-SVG-20010904/DTD/svg10.dtd">
<svg version="1.0" xmlns="http://www.w3.org/2000/svg"
 width="200.000000pt" height="113.000000pt" viewBox="0 0 200.000000 113.000000"
 preserveAspectRatio="xMidYMid meet">

<g transform="translate(0.000000,113.000000) scale(0.100000,-0.100000)"
fill="#000000" stroke="none">
<path d="M1510 1110 c0 -5 4 -10 9 -10 6 0 13 5 16 10 3 6 -1 10 -9 10 -9 0
-16 -4 -16 -10z"/>
<path d="M1537 999 c14 -44 42 -110 63 -147 30 -54 43 -68 65 -70 18 -2 26 1
23 10 -23 92 -53 168 -64 164 -7 -3 -30 21 -53 54 -23 33 -46 62 -50 65 -5 2
2 -31 16 -76z"/>
<path d="M1590 1020 c6 -11 13 -20 16 -20 2 0 0 9 -6 20 -6 11 -13 20 -16 20
-2 0 0 -9 6 -20z"/>
<path d="M1430 784 c-122 -35 -162 -39 -209 -21 -48 20 -83 12 -166 -38 -114
-68 -123 -99 -30 -109 63 -6 66 -5 160 43 140 72 266 121 321 123 53 3 46 12
105 -115 30 -63 33 -95 8 -70 -8 8 -43 -5 -125 -48 -62 -32 -123 -59 -133 -59
-32 0 -71 22 -69 38 4 19 -21 25 -219 51 -82 11 -193 27 -248 36 -127 19 -198
19 -235 0 -37 -19 -37 -27 -3 -65 23 -26 31 -29 60 -24 54 10 39 -11 -36 -52
-62 -33 -92 -66 -75 -83 2 -3 36 11 74 29 53 26 73 31 82 22 8 -8 5 -16 -13
-31 -34 -29 -19 -26 61 13 42 20 70 28 70 21 0 -12 -278 -155 -303 -155 -14 0
-110 60 -157 99 -31 25 -68 26 -115 4 -35 -17 -51 -42 -17 -28 66 27 67 8 1
-25 -21 -11 -39 -27 -39 -35 0 -18 2 -18 35 -3 23 10 30 7 94 -55 38 -37 72
-67 75 -67 16 0 2 23 -44 73 -27 30 -50 58 -50 61 0 14 42 4 76 -19 20 -13 51
-27 70 -31 40 -7 41 -10 12 -35 -43 -35 6 -21 162 46 152 65 167 69 194 51 31
-20 67 -10 257 70 80 34 154 59 184 61 34 3 47 2 40 -5 -15 -15 -419 -164
-588 -216 -81 -26 -189 -53 -240 -62 -96 -16 -123 -28 -97 -44 8 -5 18 -6 23
-3 4 3 14 -2 20 -11 11 -14 46 -5 327 83 596 187 656 209 825 293 110 55 128
73 122 123 -2 22 -20 75 -40 118 l-36 77 -43 -1 c-24 0 -81 -12 -128 -25z
m-205 -38 c19 -8 35 -17 35 -20 0 -3 -18 -15 -41 -26 -44 -23 -67 -18 -34 6
17 13 18 16 5 24 -8 5 -21 10 -27 10 -7 0 -13 5 -13 10 0 14 35 12 75 -4z
m-60 -26 c-14 -23 -107 -62 -133 -55 -21 5 -23 8 -11 20 26 26 74 45 112 45
23 0 36 -4 32 -10z m-336 -120 c151 -23 414 -60 430 -60 22 0 11 -30 -14 -36
-28 -7 -534 91 -549 106 -13 13 -12 13 133 -10z"/>
<path d="M1710 744 c-14 -7 -29 -15 -34 -17 -5 -2 -3 -13 3 -26 14 -26 26 -20
54 28 20 34 15 36 -23 15z"/>
<path d="M1466 694 c-5 -13 -9 -14 -21 -4 -23 19 -31 3 -10 -20 18 -19 18 -22
1 -56 -9 -20 -15 -39 -12 -42 8 -8 36 19 36 34 0 17 12 18 28 2 17 -17 16 11
-2 35 -7 9 -11 28 -8 42 5 28 -3 34 -12 9z"/>
<path d="M1712 678 c-17 -17 -15 -31 10 -110 15 -45 27 -68 37 -68 15 0 30
-18 83 -99 23 -33 23 -13 2 60 -16 53 -103 229 -114 229 -3 0 -11 -5 -18 -12z"/>
<path d="M1278 643 c-49 -19 -88 -38 -88 -43 0 -4 33 -12 73 -19 39 -7 82 -14
94 -17 17 -5 25 2 41 33 18 34 18 40 5 61 -9 12 -21 22 -27 22 -6 -1 -50 -17
-98 -37z"/>
<path d="M1796 417 c3 -10 9 -15 12 -12 3 3 0 11 -7 18 -10 9 -11 8 -5 -6z"/>
<path d="M1845 350 c4 -6 11 -8 16 -5 14 9 11 15 -7 15 -8 0 -12 -5 -9 -10z"/>
</g>
</svg>
